PathFileType	4	(X/Y/Z)	D:\TRACE\spot_10-12-23\spot_arm_body_motion_1_9-platform.trc
DataRate	CameraRate	NumFrames	NumMarkers	Units	OrigDataRate	OrigDataStartFrame	OrigNumFrames
100.00	100.00	      42	5	mm	100.00	1751	      7000
Frame#	Time	Left_Front			Right_Front			Left_Aft			Right_Aft			Post			
		X1	Y1	Z1	X2	Y2	Z2	X3	Y3	Z3	X4	Y4	Z4	X5	Y5	Z5	

1751	17.500	-817.05255	1.59762	-654.56110	749.92511	-1.15208	-630.04797	-748.27081	18.93863	484.11749	658.50391	18.24366	586.25604	-27.98887	724.48553	-975.68066	
1752	17.510	-816.17242	1.13608	-654.66058	751.06342	-0.90331	-629.92413	-747.80591	19.20950	484.00656	659.09393	18.63989	586.39093	-27.52204	723.71008	-976.28821	
1753	17.520	-815.59521	0.81152	-654.57397	751.79987	-1.31617	-629.98145	-747.11926	19.69588	483.91589	659.94244	18.92654	586.28461	-27.58657	723.25824	-976.97308	
1754	17.530	-814.92987	0.38682	-654.76697	752.55048	-1.91712	-629.97583	-746.37781	19.94125	483.71167	660.63348	19.28478	586.22815	-26.91887	722.50006	-977.51978	
1755	17.540	-814.25848	-0.16974	-654.93408	753.18048	-2.32337	-630.08917	-745.65369	20.21939	483.53336	661.28259	19.49305	585.87909	-26.05315	721.96606	-978.30255	
1756	17.550	-813.60065	-0.46210	-655.00977	753.79456	-2.65256	-630.21759	-744.93866	20.46499	483.51471	661.89722	19.84278	585.87958	-25.35161	721.37390	-978.84973	
1757	17.560	-812.73199	-0.89688	-654.96222	754.74500	-3.09134	-630.33496	-744.16968	20.77497	483.51645	662.87585	20.39968	585.70251	-24.65179	720.72888	-979.42944	
1758	17.570	-811.80682	-1.57943	-654.99481	755.44574	-3.47368	-630.38245	-743.22046	21.04800	483.53073	663.63513	20.83649	585.60388	-23.82193	720.11774	-979.96985	
1759	17.580	-811.22589	-2.02131	-655.09821	756.18488	-4.00255	-630.44464	-742.60132	21.21194	483.49133	664.23254	21.03882	585.53516	-22.98530	719.38733	-980.46710	
1760	17.590	-810.55524	-2.54926	-655.30286	756.91492	-4.51359	-630.60297	-741.90442	21.48405	483.35385	664.85431	21.25817	585.36694	-22.27782	718.54028	-980.94434	
1761	17.600	-809.60345	-2.94948	-655.42975	757.69763	-4.84626	-630.64502	-740.99744	21.77312	483.22925	665.77106	21.70798	585.33795	-21.62160	718.09546	-981.38617	
1762	17.610	-808.82941	-3.10706	-655.42554	758.55432	-5.26980	-630.73987	-740.21063	22.06504	482.87137	666.57489	22.11887	585.30737	-20.79799	717.56805	-981.99298	
1763	17.620	-807.99951	-3.47724	-655.56091	759.33551	-5.63746	-630.72235	-739.30884	22.50576	482.83804	667.25543	22.34023	584.94373	-19.89579	716.87073	-982.49896	
1764	17.630	-807.25543	-3.95478	-655.64777	759.98865	-5.96987	-630.85681	-738.54370	22.83944	482.83459	668.11237	22.81705	584.96326	-19.47187	716.34613	-982.84039	
1765	17.640	-806.29773	-4.51925	-655.92767	760.95563	-6.43763	-630.96057	-737.86066	22.93203	482.80383	668.93396	23.11920	585.01392	-18.51167	715.58490	-983.45374	
1766	17.650	-805.40454	-4.89679	-655.99365	761.76257	-6.83442	-631.02393	-736.98431	23.25059	482.59229	669.69672	23.39108	585.01709	-17.69013	715.18781	-983.90790	
1767	17.660	-804.71118	-5.31998	-655.70959	762.60040	-7.11393	-631.11078	-736.15082	23.44558	482.46875	670.60193	23.60921	584.69659	-16.90327	714.44562	-984.40295	
1768	17.670	-803.92682	-5.61206	-655.80768	763.40009	-7.46966	-631.28510	-735.15717	23.81920	482.36713	671.44879	24.00759	584.67786	-16.12365	713.90576	-984.86115	
1769	17.680	-803.17334	-6.02844	-655.87378	764.35284	-7.83296	-631.22925	-734.65692	23.88829	482.32867	672.33386	24.34420	584.69513	-15.32426	713.48309	-985.33081	
1770	17.690	-802.28516	-6.51066	-655.94867	765.09485	-8.18528	-631.28979	-733.46063	24.28390	482.18463	673.07666	24.37856	584.50421	-14.14085	712.71216	-985.86346	
1771	17.700	-801.36884	-6.88502	-655.88605	765.96814	-8.62908	-631.35736	-732.78180	24.47050	482.05893	673.98938	24.75733	584.39099	-13.25635	712.15289	-986.24438	
1772	17.710	-800.58234	-6.89422	-655.99109	766.80688	-8.98819	-631.52948	-731.98993	24.64474	481.92365	674.77679	25.08549	584.43201	-12.39336	711.59857	-986.81635	
1773	17.720	-799.61835	-7.02056	-656.21686	767.77344	-9.20987	-631.52271	-730.95038	25.00502	481.82404	675.83105	25.54788	584.28583	-11.54668	711.02948	-987.37512	
1774	17.730	-798.74750	-7.59869	-656.29614	768.75769	-9.83603	-631.54181	-730.06158	25.34514	481.76318	676.74268	25.86972	584.16467	-10.74751	710.56879	-987.85791	
1775	17.740	-797.80542	-8.46653	-656.16223	769.53662	-10.26233	-631.61963	-729.20862	25.59854	481.62875	677.58813	26.11517	584.15637	-9.70033	709.99152	-988.41254	
1776	17.750	-797.08716	-8.59990	-656.31012	770.37622	-10.39079	-631.64880	-728.20740	25.71204	481.58136	678.26404	26.25958	584.12317	-9.26932	709.64551	-988.79669	
1777	17.760	-796.17859	-8.65136	-656.42145	771.26215	-10.49811	-631.71295	-727.54120	25.91094	481.58078	679.30481	26.52740	583.96533	-7.96320	708.93182	-989.28613	
1778	17.770	-795.19592	-8.93744	-656.54089	772.19122	-11.06329	-631.79041	-726.50854	26.05526	481.52081	680.25452	26.77554	583.99469	-7.27998	708.63092	-989.55396	
1779	17.780	-794.15289	-9.27367	-656.45142	773.10840	-11.30222	-631.80676	-725.47699	26.23702	481.46042	681.19287	27.11068	583.94995	-6.34507	708.34387	-989.90247	
1780	17.790	-793.34082	-9.61973	-656.54620	774.15100	-11.55748	-631.86456	-724.71613	26.49535	481.35895	682.04889	27.34728	583.77118	-5.18314	707.88470	-990.18567	
1781	17.800	-792.61603	-10.08926	-656.61682	774.83209	-11.78968	-631.94873	-723.90234	26.55818	481.44717	683.02100	27.47059	583.69421	-4.26017	707.38116	-990.41010	
1782	17.810	-791.52930	-10.47824	-656.58636	775.85138	-12.18503	-632.02423	-722.94910	26.61444	481.28387	683.89844	27.63005	583.74329	-3.45968	706.80902	-990.66162	
1783	17.820	-790.45886	-10.50909	-656.50861	776.83014	-12.58762	-632.03809	-721.73859	26.82117	481.32715	684.76428	27.79508	583.38696	-2.56381	706.37451	-991.03802	
1784	17.830	-789.48907	-10.74707	-656.64459	777.74982	-12.67843	-632.10919	-720.92517	27.21869	481.26514	685.75635	28.24388	583.46021	-1.56985	706.09454	-991.09949	
1785	17.840	-788.58521	-11.02157	-656.77625	778.80774	-12.76216	-632.13098	-719.96252	27.49502	481.26083	686.90442	28.58581	583.49542	0.08884	705.38074	-991.89587	
1786	17.850	-787.88251	-11.29499	-656.75610	779.74225	-13.19459	-632.12042	-718.94836	27.49199	481.14334	687.84607	28.31626	583.30884	0.46836	705.32910	-991.77734	
1787	17.860	-786.67505	-11.75689	-656.80017	780.54425	-13.58024	-632.28113	-718.15442	27.63861	481.01959	688.63708	28.59644	583.25476	1.29759	704.77350	-992.01971	
1788	17.870	-785.82166	-11.91718	-656.98267	781.59747	-13.77476	-632.27539	-717.23352	27.73669	481.10040	689.63501	28.80101	583.31543	2.34607	704.42285	-992.30133	
1789	17.880	-784.84045	-12.08549	-657.00958	782.53870	-13.91676	-632.33099	-716.02917	27.99191	480.96341	690.28485	29.13005	583.31134	3.22885	704.17511	-992.82916	
1790	17.890	-783.84094	-12.31744	-656.84546	783.55725	-14.14264	-632.40991	-715.12213	28.19274	480.93771	691.24713	29.25090	583.03015	4.08521	703.87842	-993.24896	
1791	17.900	-782.99091	-12.40607	-656.94592	784.42743	-14.34196	-632.34937	-714.58795	28.17268	481.09589	692.45490	29.42357	583.02130	4.94103	703.41315	-993.72797	
1792	17.910	-781.97894	-12.67000	-657.01233	785.41760	-14.65825	-632.40051	-713.29840	28.34613	480.69363	693.63416	29.45714	583.00427	6.26931	702.63660	-994.27771	
